<?xml version="1.0" encoding="UTF-8"?>
<svg version="1.1" xmlns="http://www.w3.org/2000/svg" width="617" height="88">
<path d="M0 0 C0.86073624 -0.00860046 1.72147247 -0.01720093 2.60829163 -0.02606201 C3.55480087 -0.03032196 4.50131012 -0.03458191 5.47650146 -0.03897095 C6.47177353 -0.04714844 7.46704559 -0.05532593 8.49247742 -0.06375122 C11.79671624 -0.08862869 15.10091202 -0.10512753 18.4052124 -0.11953735 C19.53224327 -0.12486103 20.65927414 -0.13018471 21.82045746 -0.13566971 C27.78603943 -0.16241185 33.75160041 -0.18178314 39.71722412 -0.19619751 C45.88233708 -0.21284544 52.0469155 -0.257622 58.21182632 -0.30856895 C62.94904196 -0.34220986 67.68613026 -0.35377156 72.42345428 -0.35942459 C74.69606358 -0.36614604 76.96866423 -0.38139111 79.24115753 -0.4053154 C82.4229142 -0.4369001 85.60322322 -0.43701323 88.78509521 -0.42959595 C90.1927137 -0.45420395 90.1927137 -0.45420395 91.62876892 -0.47930908 C96.01944687 -0.43742477 98.9678967 -0.25109135 102.45861816 2.56536865 C105.6251708 5.93716008 106.01580076 7.38847524 106.0824585 11.87557983 C106.09852142 12.85710022 106.11458435 13.83862061 106.13113403 14.84988403 C106.17557973 19.34574727 106.21665721 23.84146228 106.23968506 28.3374939 C106.25623731 30.70803652 106.28351738 33.07852939 106.32171631 35.44882202 C106.37651578 38.8664032 106.39836564 42.28281362 106.4130249 45.70077515 C106.43569427 46.75722229 106.45836365 47.81366943 106.48171997 48.90213013 C106.45815345 57.1224314 106.45815345 57.1224314 103.48187256 60.80722046 C100.2965733 63.69072926 98.93401536 64.27692768 94.7791748 64.30780029 C93.48807045 64.32070099 93.48807045 64.32070099 92.17088318 64.3338623 C91.22437393 64.33812225 90.27786469 64.3423822 89.30267334 64.34677124 C88.30740128 64.35494873 87.31212921 64.36312622 86.28669739 64.37155151 C82.98245857 64.39642898 79.67826278 64.41292782 76.3739624 64.42733765 C74.6834161 64.43532316 74.6834161 64.43532316 72.95871735 64.44347 C66.99313537 64.47021214 61.0275744 64.48958343 55.06195068 64.5039978 C48.89683772 64.52064573 42.73225931 64.5654223 36.56734848 64.61636925 C31.83013284 64.65001016 27.09304454 64.66157185 22.35572052 64.66722488 C20.08311123 64.67394633 17.81051057 64.68919141 15.53801727 64.71311569 C12.3562606 64.74470039 9.17595159 64.74481353 5.99407959 64.73739624 C5.05566727 64.75380157 4.11725494 64.77020691 3.15040588 64.78710938 C-1.24027206 64.74522506 -4.1887219 64.55889165 -7.67944336 61.74243164 C-10.845996 58.37064022 -11.23662595 56.91932505 -11.30328369 52.43222046 C-11.31934662 51.45070007 -11.33540955 50.46917969 -11.35195923 49.45791626 C-11.39640493 44.96205302 -11.43748241 40.46633801 -11.46051025 35.9703064 C-11.47706251 33.59976377 -11.50434257 31.2292709 -11.5425415 28.85897827 C-11.59734098 25.4413971 -11.61919084 22.02498668 -11.6338501 18.60702515 C-11.65651947 17.550578 -11.67918884 16.49413086 -11.70254517 15.40567017 C-11.67897865 7.1853689 -11.67897865 7.1853689 -8.70269775 3.50057983 C-5.5173985 0.61707103 -4.15484056 0.03087261 0 0 Z " fill="#4C1D95" transform="translate(381.11041259765625,11.846099853515625)"/>
<path d="M0 0 C0.96601135 -0.00817749 1.93202271 -0.01635498 2.92730713 -0.02478027 C6.13414892 -0.04965601 9.34094636 -0.06615623 12.54785156 -0.08056641 C13.64178474 -0.08589008 14.73571793 -0.09121376 15.8628006 -0.09669876 C21.65331828 -0.12344029 27.44381432 -0.14281168 33.234375 -0.15722656 C39.21789298 -0.17387339 45.20086008 -0.21864911 51.18416977 -0.26959801 C55.78241616 -0.30324291 60.38053139 -0.31480105 64.97888947 -0.32045364 C67.18451394 -0.32717411 69.39012954 -0.34241666 71.59563446 -0.36634445 C74.68400531 -0.39793764 77.7708852 -0.39804111 80.859375 -0.390625 C81.76973511 -0.40703033 82.68009521 -0.42343567 83.61804199 -0.44033813 C87.94830772 -0.39779872 90.80146486 -0.17094653 94.24029541 2.6043396 C97.4268236 5.97354639 97.81454879 7.41794588 97.88134766 11.91455078 C97.89741058 12.89607117 97.91347351 13.87759155 97.93002319 14.88885498 C97.97446889 19.38471822 98.01554637 23.88043323 98.03857422 28.37646484 C98.05512647 30.74700747 98.08240654 33.11750034 98.12060547 35.48779297 C98.17540494 38.90537414 98.1972548 42.32178456 98.21191406 45.73974609 C98.23458344 46.79619324 98.25725281 47.85264038 98.28060913 48.94110107 C98.25704261 57.16140234 98.25704261 57.16140234 95.28076172 60.84619141 C90.85211918 64.85524321 87.11116147 64.35914602 81.37695312 64.38574219 C80.41094177 64.39391968 79.44493042 64.40209717 78.449646 64.41052246 C75.24280421 64.4353982 72.03600676 64.45189842 68.82910156 64.46630859 C67.18820179 64.47429411 67.18820179 64.47429411 65.51415253 64.48244095 C59.72363485 64.50918248 53.9331388 64.52855386 48.14257812 64.54296875 C42.15906014 64.55961557 36.17609305 64.6043913 30.19278336 64.65534019 C25.59453697 64.6889851 20.99642173 64.70054324 16.39806366 64.70619583 C14.19243919 64.71291629 11.98682358 64.72815885 9.78131866 64.75208664 C6.69294782 64.78367983 3.60606792 64.7837833 0.51757812 64.77636719 C-0.84796204 64.80097519 -0.84796204 64.80097519 -2.24108887 64.82608032 C-6.57135459 64.7835409 -9.42451174 64.55668872 -12.86334229 61.78140259 C-16.04987047 58.41219579 -16.43759566 56.9677963 -16.50439453 52.47119141 C-16.52045746 51.48967102 -16.53652039 50.50815063 -16.55307007 49.49688721 C-16.59751577 45.00102397 -16.63859325 40.50530896 -16.66162109 36.00927734 C-16.67817335 33.63873472 -16.70545341 31.26824185 -16.74365234 28.89794922 C-16.79845182 25.48036804 -16.82030168 22.06395762 -16.83496094 18.64599609 C-16.85763031 17.58954895 -16.88029968 16.53310181 -16.90365601 15.44464111 C-16.88008949 7.22433984 -16.88008949 7.22433984 -13.90380859 3.53955078 C-9.47516606 -0.46950103 -5.73420835 0.02659616 0 0 Z " fill="#D3F9FB" transform="translate(519.3115234375,11.80712890625)"/>
<path d="M0 0 C0.07460523 5.67420636 0.12881608 11.34812208 0.16479492 17.02270508 C0.17980652 18.94983906 0.20022216 20.87693932 0.22631836 22.80395508 C0.26303943 25.58683639 0.27980292 28.36926288 0.29296875 31.15234375 C0.30845261 32.00271713 0.32393646 32.85309052 0.33988953 33.72923279 C0.34217978 42.01900146 -1.66094964 49.50656038 -7 56 C-13.25281405 61.58334788 -18.52943695 64.11732082 -27 64 C-27.09953497 58.05929342 -27.17178154 52.11908173 -27.21972656 46.17773438 C-27.23973216 44.16039565 -27.2669456 42.1431141 -27.30175781 40.12597656 C-27.35076577 37.21144427 -27.37307964 34.29768441 -27.390625 31.3828125 C-27.41127014 30.49385284 -27.43191528 29.60489319 -27.45318604 28.68899536 C-27.45606274 20.49912274 -25.34894504 13.30198548 -19.8125 7.125 C-13.71860845 1.60526526 -8.1139196 -0.09521436 0 0 Z " fill="#2EC5CE" transform="translate(87,23)"/>
<path d="M0 0 C0 2.97 0 5.94 0 9 C-0.804375 9.28875 -1.60875 9.5775 -2.4375 9.875 C-5.1326468 10.73262568 -5.1326468 10.73262568 -6 13 C-0.39 13 5.22 13 11 13 C12.23697917 16.02734375 13.47395833 19.0546875 14.7109375 22.08203125 C15.9479119 25.10730112 15.9479119 25.10730112 18 28 C19.65 23.05 21.3 18.1 23 13 C26.63 13 30.26 13 34 13 C31.89371567 21.05068676 29.45608098 28.90332092 26.6875 36.75 C26.13932617 38.37615234 26.13932617 38.37615234 25.58007812 40.03515625 C23.04853895 47.19691994 20.30922546 53.52219536 13.5 57.4375 C10.6005762 58.08987035 7.96242527 58.13778722 5 58 C5 54.7 5 51.4 5 48 C7.97 47.505 7.97 47.505 11 47 C10.54322929 39.95742614 8.31918873 34.3988494 5.4375 28 C5.01275391 27.03449219 4.58800781 26.06898437 4.15039062 25.07421875 C3.10954116 22.71184131 2.05930203 20.35414636 1 18 C0.67 19.65 0.34 21.3 0 23 C-1.98 23 -3.96 23 -6 23 C-6 30.26 -6 37.52 -6 45 C-9.63 45 -13.26 45 -17 45 C-17 37.74 -17 30.48 -17 23 C-18.32 23 -19.64 23 -21 23 C-21 19.7 -21 16.4 -21 13 C-19.68 13 -18.36 13 -17 13 C-16.79375 11.783125 -16.5875 10.56625 -16.375 9.3125 C-15.50527011 5.93554879 -14.81715303 4.78593525 -12.4375 2 C-7.88029063 -0.65146727 -5.20194269 -0.39408657 0 0 Z " fill="#FFFFFF" transform="translate(296,21)"/>
<path d="M0 0 C0.12438696 6.08309628 0.21470951 12.16543851 0.2746582 18.24951172 C0.29967089 20.31539826 0.33369236 22.38119748 0.37719727 24.44677734 C0.43843558 27.43088424 0.4663426 30.41381287 0.48828125 33.3984375 C0.51408768 34.30927094 0.5398941 35.22010437 0.56648254 36.15853882 C0.5698062 43.90461603 -1.71941031 50.31407751 -6.91508484 56.15170288 C-12.37859647 61.46896416 -18.3957772 64 -26 64 C-26.12435721 57.7744867 -26.21469608 51.54970936 -26.2746582 45.32324219 C-26.29967575 43.20885611 -26.33370092 41.09455541 -26.37719727 38.98046875 C-26.43841332 35.92686808 -26.46633792 32.87441861 -26.48828125 29.8203125 C-26.51408768 28.88760529 -26.5398941 27.95489807 -26.56648254 26.993927 C-26.5696854 19.35960897 -24.47046606 12.81705978 -19.25776672 7.08377075 C-13.4883597 1.70833651 -7.84223544 -0.1680479 0 0 Z " fill="#8C30F5" transform="translate(29,0)"/>
<path d="M0 0 C0.79056793 0.0028299 1.58113586 0.00565979 2.3956604 0.00857544 C4.90195334 0.01970295 7.40787895 0.04479324 9.9140625 0.0703125 C11.62108856 0.08035192 13.32812027 0.08947609 15.03515625 0.09765625 C19.2032649 0.11961787 23.37110158 0.15409579 27.5390625 0.1953125 C26.45754451 9.37195197 24.17637189 14.96212303 17.61328125 21.65234375 C11.80288658 25.97457707 6.55523664 26.62484321 -0.45703125 26.48828125 C-1.29057632 26.48403641 -2.1241214 26.47979156 -2.98292542 26.47541809 C-5.62177061 26.45874564 -8.25982666 26.42111608 -10.8984375 26.3828125 C-12.69725453 26.36775083 -14.49608363 26.35406503 -16.29492188 26.34179688 C-20.68389365 26.30887978 -25.07228219 26.25717817 -29.4609375 26.1953125 C-29.17976697 24.61576232 -28.8887636 23.03796084 -28.59375 21.4609375 C-28.35229248 20.14270996 -28.35229248 20.14270996 -28.10595703 18.79785156 C-26.39347668 11.88829799 -22.22725406 7.54303596 -16.62109375 3.421875 C-11.21814234 0.35401471 -6.10080052 -0.08324774 0 0 Z " fill="#F22BB1" transform="translate(30.4609375,61.8046875)"/>
<path d="M0 0 C0.83354507 0.00424484 1.66709015 0.00848969 2.52589417 0.01286316 C5.16473936 0.02953561 7.80279541 0.06716517 10.44140625 0.10546875 C12.24022328 0.12053042 14.03905238 0.13421622 15.83789062 0.14648438 C20.2268624 0.17940147 24.61525094 0.23110308 29.00390625 0.29296875 C28.72273572 1.87251893 28.43173235 3.45032041 28.13671875 5.02734375 C27.97574707 5.90616211 27.81477539 6.78498047 27.64892578 7.69042969 C25.93644543 14.59998326 21.77022281 18.94524529 16.1640625 23.06640625 C10.76111109 26.13426654 5.64376927 26.57152899 -0.45703125 26.48828125 C-1.24759918 26.48545135 -2.03816711 26.48262146 -2.85269165 26.47970581 C-5.35898459 26.4685783 -7.8649102 26.44348801 -10.37109375 26.41796875 C-12.07811981 26.40792933 -13.78515152 26.39880516 -15.4921875 26.390625 C-19.66029615 26.36866338 -23.82813283 26.33418546 -27.99609375 26.29296875 C-26.91457576 17.11632928 -24.63340314 11.52615822 -18.0703125 4.8359375 C-12.25991783 0.51370418 -7.01226789 -0.13656196 0 0 Z " fill="#FD9A22" transform="translate(57.99609375,-0.29296875)"/>
<path d="M0 0 C3.3 0 6.6 0 10 0 C10 14.52 10 29.04 10 44 C6 44 2 44 -2 44 C-2.99 44.495 -2.99 44.495 -4 45 C-8.9252115 45.54035594 -12.86941718 45.54435469 -17.375 43.375 C-22.55999236 38.68381644 -24.73169785 34.52614211 -25.16015625 27.59765625 C-24.79897429 21.739461 -22.56914417 17.45966899 -18.3125 13.5 C-14.24375741 11.65755052 -10.47863343 10.76633217 -6 11 C-4.35 11.66 -2.7 12.32 -1 13 C-0.67 8.71 -0.34 4.42 0 0 Z M-12.3125 22.5625 C-14.61854451 25.89345318 -14.504958 28.0324729 -14 32 C-12.56030286 34.1595457 -11.48115013 34.79150161 -9.125 35.8125 C-6.20556993 36.07009677 -4.5525683 35.41062985 -2 34 C-0.0203775 31.48048045 0.00657316 30.16104254 -0.125 26.9375 C-0.77347445 23.96377786 -0.77347445 23.96377786 -2.75 22.125 C-6.52484413 20.23757794 -8.78335566 20.17794301 -12.3125 22.5625 Z " fill="#FFFFFF" transform="translate(245,22)"/>
<path d="M0 0 C2.56016973 0.33708901 4.90899698 0.5625 7.5 0.5625 C10.8 0.5625 14.1 0.5625 17.5 0.5625 C17.5 11.1225 17.5 21.6825 17.5 32.5625 C13.54 32.5625 9.58 32.5625 5.5 32.5625 C4.51 33.0575 4.51 33.0575 3.5 33.5625 C-1.4252115 34.10285594 -5.36941718 34.10685469 -9.875 31.9375 C-14.42623237 27.81971833 -17.12121829 23.99141883 -17.58984375 17.70703125 C-17.38297462 12.76915513 -16.15862752 8.43236781 -12.84375 4.6953125 C-8.67114283 1.00007988 -5.6868203 -0.76772074 0 0 Z M-4.8125 11.125 C-7.11854451 14.45595318 -7.004958 16.5949729 -6.5 20.5625 C-5.06030286 22.7220457 -3.98115013 23.35400161 -1.625 24.375 C1.25980919 24.62954199 2.95531608 23.90180733 5.5 22.5625 C7.84522935 19.67737022 7.84522935 19.67737022 7.375 16.0625 C6.79749756 12.58657075 6.79749756 12.58657075 4.75 10.625 C0.95105947 8.83105586 -1.29095019 8.74557445 -4.8125 11.125 Z " fill="#FFFFFF" transform="translate(161.5,33.4375)"/>
<path d="M0 0 C2.70552388 2.19823815 4.44778333 3.89556667 6 7 C6.084915 8.8863912 6.107193 10.77578515 6.09765625 12.6640625 C6.09443359 13.78554688 6.09121094 14.90703125 6.08789062 16.0625 C6.07951172 17.238125 6.07113281 18.41375 6.0625 19.625 C6.05798828 20.80835937 6.05347656 21.99171875 6.04882812 23.2109375 C6.03701467 26.14067507 6.02054258 29.07031272 6 32 C2.7 32 -0.6 32 -4 32 C-4.06058594 30.57945313 -4.12117188 29.15890625 -4.18359375 27.6953125 C-4.26799291 25.83853091 -4.35264123 23.98176064 -4.4375 22.125 C-4.47681641 21.18785156 -4.51613281 20.25070313 -4.55664062 19.28515625 C-4.59853516 18.38925781 -4.64042969 17.49335937 -4.68359375 16.5703125 C-4.72025146 15.74289551 -4.75690918 14.91547852 -4.79467773 14.06298828 C-4.88238327 11.93820571 -4.88238327 11.93820571 -6 10 C-7.99954746 9.95745644 -10.00041636 9.95919217 -12 10 C-13.61780157 11.61780157 -13.22272147 13.45635518 -13.31640625 15.69140625 C-13.35830078 16.63564453 -13.40019531 17.57988281 -13.44335938 18.55273438 C-13.48267578 19.54595703 -13.52199219 20.53917969 -13.5625 21.5625 C-13.60568359 22.55958984 -13.64886719 23.55667969 -13.69335938 24.58398438 C-13.79980167 27.05581111 -13.90043759 29.5278866 -14 32 C-17.63 32 -21.26 32 -25 32 C-25 21.44 -25 10.88 -25 0 C-20.71 0 -16.42 0 -12 0 C-7.82507137 -1.39164288 -4.24477353 -1.10959869 0 0 Z " fill="#FFFFFF" transform="translate(210,34)"/>
<path d="M0 0 C0.86073624 -0.00860046 1.72147247 -0.01720093 2.60829163 -0.02606201 C3.55480087 -0.03032196 4.50131012 -0.03458191 5.47650146 -0.03897095 C6.47177353 -0.04714844 7.46704559 -0.05532593 8.49247742 -0.06375122 C11.79671624 -0.08862869 15.10091202 -0.10512753 18.4052124 -0.11953735 C19.53224327 -0.12486103 20.65927414 -0.13018471 21.82045746 -0.13566971 C27.78603943 -0.16241185 33.75160041 -0.18178314 39.71722412 -0.19619751 C45.88233708 -0.21284544 52.0469155 -0.257622 58.21182632 -0.30856895 C62.94904196 -0.34220986 67.68613026 -0.35377156 72.42345428 -0.35942459 C74.69606358 -0.36614604 76.96866423 -0.38139111 79.24115753 -0.4053154 C82.4229142 -0.4369001 85.60322322 -0.43701323 88.78509521 -0.42959595 C90.1927137 -0.45420395 90.1927137 -0.45420395 91.62876892 -0.47930908 C96.01944687 -0.43742477 98.9678967 -0.25109135 102.45861816 2.56536865 C105.6251708 5.93716008 106.01580076 7.38847524 106.0824585 11.87557983 C106.09852142 12.85710022 106.11458435 13.83862061 106.13113403 14.84988403 C106.17557973 19.34574727 106.21665721 23.84146228 106.23968506 28.3374939 C106.25623731 30.70803652 106.28351738 33.07852939 106.32171631 35.44882202 C106.37651578 38.8664032 106.39836564 42.28281362 106.4130249 45.70077515 C106.43569427 46.75722229 106.45836365 47.81366943 106.48171997 48.90213013 C106.45815345 57.1224314 106.45815345 57.1224314 103.48187256 60.80722046 C100.2965733 63.69072926 98.93401536 64.27692768 94.7791748 64.30780029 C93.48807045 64.32070099 93.48807045 64.32070099 92.17088318 64.3338623 C91.22437393 64.33812225 90.27786469 64.3423822 89.30267334 64.34677124 C88.30740128 64.35494873 87.31212921 64.36312622 86.28669739 64.37155151 C82.98245857 64.39642898 79.67826278 64.41292782 76.3739624 64.42733765 C74.6834161 64.43532316 74.6834161 64.43532316 72.95871735 64.44347 C66.99313537 64.47021214 61.0275744 64.48958343 55.06195068 64.5039978 C48.89683772 64.52064573 42.73225931 64.5654223 36.56734848 64.61636925 C31.83013284 64.65001016 27.09304454 64.66157185 22.35572052 64.66722488 C20.08311123 64.67394633 17.81051057 64.68919141 15.53801727 64.71311569 C12.3562606 64.74470039 9.17595159 64.74481353 5.99407959 64.73739624 C5.05566727 64.75380157 4.11725494 64.77020691 3.15040588 64.78710938 C-1.24027206 64.74522506 -4.1887219 64.55889165 -7.67944336 61.74243164 C-10.845996 58.37064022 -11.23662595 56.91932505 -11.30328369 52.43222046 C-11.31934662 51.45070007 -11.33540955 50.46917969 -11.35195923 49.45791626 C-11.39640493 44.96205302 -11.43748241 40.46633801 -11.46051025 35.9703064 C-11.47706251 33.59976377 -11.50434257 31.2292709 -11.5425415 28.85897827 C-11.59734098 25.4413971 -11.61919084 22.02498668 -11.6338501 18.60702515 C-11.65651947 17.550578 -11.67918884 16.49413086 -11.70254517 15.40567017 C-11.67897865 7.1853689 -11.67897865 7.1853689 -8.70269775 3.50057983 C-5.5173985 0.61707103 -4.15484056 0.03087261 0 0 Z M-8.1104126 7.15390015 C-8.4404126 7.48390015 -8.7704126 7.81390015 -9.1104126 8.15390015 C-9.22947311 9.63064719 -9.28047948 11.11296654 -9.30328369 12.59432983 C-9.31934662 13.53911194 -9.33540955 14.48389404 -9.35195923 15.45730591 C-9.39629147 19.79236269 -9.43749023 24.12726345 -9.46051025 28.4624939 C-9.47706074 30.74970684 -9.50433854 33.03686826 -9.5425415 35.32382202 C-9.59729107 38.61641356 -9.61918376 41.90778976 -9.6338501 45.20077515 C-9.65651947 46.22177307 -9.67918884 47.242771 -9.70254517 48.29470825 C-9.70030671 54.23756471 -9.70030671 54.23756471 -6.70269775 59.27597046 C-3.50958049 61.58916108 -1.96514186 62.27831474 1.89283752 62.30780029 C3.14824593 62.32070099 3.14824593 62.32070099 4.42901611 62.3338623 C5.80905823 62.34025223 5.80905823 62.34025223 7.21697998 62.34677124 C8.18459763 62.35494873 9.15221527 62.36312622 10.14915466 62.37155151 C13.36080297 62.39642486 16.57240705 62.41292585 19.78411865 62.42733765 C21.42689065 62.43532316 21.42689065 62.43532316 23.10284996 62.44347 C28.89869869 62.47020905 34.69452581 62.48958222 40.49041748 62.5039978 C46.48300125 62.52065431 52.47503599 62.56543881 58.46741199 62.61636925 C63.0699071 62.64999035 67.67227102 62.6615696 72.27487755 62.66722488 C74.48411954 62.67395074 76.6933525 62.68920719 78.90247536 62.71311569 C81.99344541 62.74466129 85.08292311 62.7448197 88.17401123 62.73739624 C89.54494431 62.76200424 89.54494431 62.76200424 90.943573 62.78710938 C95.49956843 62.74227967 97.28199025 62.64759891 100.93431091 59.67993164 C101.57955215 58.84634125 102.2247934 58.01275085 102.8895874 57.15390015 C103.2195874 56.82390015 103.5495874 56.49390015 103.8895874 56.15390015 C104.00864792 54.67715311 104.05965428 53.19483375 104.0824585 51.71347046 C104.10655289 50.2962973 104.10655289 50.2962973 104.13113403 48.85049438 C104.17546627 44.5154376 104.21666503 40.18053684 104.23968506 35.8453064 C104.25623555 33.55809345 104.28351334 31.27093203 104.32171631 28.98397827 C104.37646588 25.69138673 104.39835856 22.40001053 104.4130249 19.10702515 C104.44702896 17.57552826 104.44702896 17.57552826 104.48171997 16.01309204 C104.47948151 10.07023558 104.47948151 10.07023558 101.48187256 5.03182983 C98.28875529 2.71863921 96.74431667 2.02948555 92.88633728 2 C92.04939835 1.99139954 91.21245941 1.98279907 90.35015869 1.97393799 C89.43013062 1.96967804 88.51010254 1.96541809 87.56219482 1.96102905 C86.59457718 1.95285156 85.62695953 1.94467407 84.63002014 1.93624878 C81.41837183 1.91137543 78.20676775 1.89487444 74.99505615 1.88046265 C73.89987482 1.87513897 72.80469349 1.86981529 71.67632484 1.86433029 C65.88047612 1.83759124 60.084649 1.81821808 54.28875732 1.80380249 C48.29617356 1.78714599 42.30413882 1.74236149 36.31176281 1.69143105 C31.70926771 1.65780994 27.10690378 1.64623069 22.50429726 1.64057541 C20.29505527 1.63384956 18.0858223 1.61859311 15.87669945 1.5946846 C12.7857294 1.563139 9.69625169 1.56298059 6.60516357 1.57040405 C5.69120819 1.55399872 4.77725281 1.53759338 3.83560181 1.52069092 C-1.89897279 1.57711751 -4.42262342 2.38962683 -8.1104126 7.15390015 Z " fill="#7B39EC" transform="translate(381.11041259765625,11.846099853515625)"/>
<path d="M0 0 C0.96601135 -0.00817749 1.93202271 -0.01635498 2.92730713 -0.02478027 C6.13414892 -0.04965601 9.34094636 -0.06615623 12.54785156 -0.08056641 C13.64178474 -0.08589008 14.73571793 -0.09121376 15.8628006 -0.09669876 C21.65331828 -0.12344029 27.44381432 -0.14281168 33.234375 -0.15722656 C39.21789298 -0.17387339 45.20086008 -0.21864911 51.18416977 -0.26959801 C55.78241616 -0.30324291 60.38053139 -0.31480105 64.97888947 -0.32045364 C67.18451394 -0.32717411 69.39012954 -0.34241666 71.59563446 -0.36634445 C74.68400531 -0.39793764 77.7708852 -0.39804111 80.859375 -0.390625 C81.76973511 -0.40703033 82.68009521 -0.42343567 83.61804199 -0.44033813 C87.94830772 -0.39779872 90.80146486 -0.17094653 94.24029541 2.6043396 C97.4268236 5.97354639 97.81454879 7.41794588 97.88134766 11.91455078 C97.89741058 12.89607117 97.91347351 13.87759155 97.93002319 14.88885498 C97.97446889 19.38471822 98.01554637 23.88043323 98.03857422 28.37646484 C98.05512647 30.74700747 98.08240654 33.11750034 98.12060547 35.48779297 C98.17540494 38.90537414 98.1972548 42.32178456 98.21191406 45.73974609 C98.23458344 46.79619324 98.25725281 47.85264038 98.28060913 48.94110107 C98.25704261 57.16140234 98.25704261 57.16140234 95.28076172 60.84619141 C90.85211918 64.85524321 87.11116147 64.35914602 81.37695312 64.38574219 C80.41094177 64.39391968 79.44493042 64.40209717 78.449646 64.41052246 C75.24280421 64.4353982 72.03600676 64.45189842 68.82910156 64.46630859 C67.18820179 64.47429411 67.18820179 64.47429411 65.51415253 64.48244095 C59.72363485 64.50918248 53.9331388 64.52855386 48.14257812 64.54296875 C42.15906014 64.55961557 36.17609305 64.6043913 30.19278336 64.65534019 C25.59453697 64.6889851 20.99642173 64.70054324 16.39806366 64.70619583 C14.19243919 64.71291629 11.98682358 64.72815885 9.78131866 64.75208664 C6.69294782 64.78367983 3.60606792 64.7837833 0.51757812 64.77636719 C-0.84796204 64.80097519 -0.84796204 64.80097519 -2.24108887 64.82608032 C-6.57135459 64.7835409 -9.42451174 64.55668872 -12.86334229 61.78140259 C-16.04987047 58.41219579 -16.43759566 56.9677963 -16.50439453 52.47119141 C-16.52045746 51.48967102 -16.53652039 50.50815063 -16.55307007 49.49688721 C-16.59751577 45.00102397 -16.63859325 40.50530896 -16.66162109 36.00927734 C-16.67817335 33.63873472 -16.70545341 31.26824185 -16.74365234 28.89794922 C-16.79845182 25.48036804 -16.82030168 22.06395762 -16.83496094 18.64599609 C-16.85763031 17.58954895 -16.88029968 16.53310181 -16.90365601 15.44464111 C-16.88008949 7.22433984 -16.88008949 7.22433984 -13.90380859 3.53955078 C-9.47516606 -0.46950103 -5.73420835 0.02659616 0 0 Z M-13.31152344 7.19287109 C-13.64152344 7.52287109 -13.97152344 7.85287109 -14.31152344 8.19287109 C-14.43058395 9.66961813 -14.48159032 11.15193749 -14.50439453 12.63330078 C-14.52045746 13.57808289 -14.53652039 14.52286499 -14.55307007 15.49627686 C-14.59740231 19.83133364 -14.63860107 24.1662344 -14.66162109 28.50146484 C-14.67817158 30.78867779 -14.70544938 33.07583921 -14.74365234 35.36279297 C-14.79840191 38.65538451 -14.8202946 41.94676071 -14.83496094 45.23974609 C-14.85763031 46.26074402 -14.88029968 47.28174194 -14.90365601 48.3336792 C-14.91042638 54.29673701 -14.91042638 54.29673701 -11.84130859 59.31494141 C-11.00647949 59.9346582 -10.17165039 60.554375 -9.31152344 61.19287109 C-8.98152344 61.52287109 -8.65152344 61.85287109 -8.31152344 62.19287109 C-5.29433646 62.31484042 -2.29966081 62.37153292 0.71875 62.38574219 C2.14069672 62.39800842 2.14069672 62.39800842 3.59136963 62.41052246 C6.74352374 62.435432 9.89563263 62.4519074 13.04785156 62.46630859 C14.65890148 62.47429411 14.65890148 62.47429411 16.30249786 62.48244095 C21.98811633 62.50919778 27.67371265 62.52856382 33.359375 62.54296875 C39.23877153 62.55961506 45.11760734 62.6043859 50.99679184 62.65534019 C55.51093199 62.68896662 60.02493841 62.70054125 64.5391922 62.70619583 C66.70656871 62.71292196 68.87393601 62.72817914 71.0411911 62.75208664 C74.07480234 62.78363914 77.10689334 62.78378947 80.140625 62.77636719 C81.03744995 62.79277252 81.9342749 62.80917786 82.85827637 62.82608032 C87.33158646 62.78124844 89.10843862 62.65385734 92.72271729 59.78140259 C95.26256898 56.43690046 95.8164647 54.8446838 95.88134766 50.73071289 C95.90544205 49.34368416 95.90544205 49.34368416 95.93002319 47.92863464 C95.97445701 43.69779162 96.01553724 39.46710574 96.03857422 35.23608398 C96.05513671 33.0042071 96.08243037 30.77238332 96.12060547 28.54077148 C96.1753525 25.32426412 96.19724527 22.10900029 96.21191406 18.89208984 C96.24591812 17.39810921 96.24591812 17.39810921 96.28060913 15.87394714 C96.26680136 10.03159993 96.26680136 10.03159993 93.28076172 5.08666992 C88.75152314 1.77782611 85.0915048 2.02605244 79.63647461 2 C78.22893921 1.98773376 78.22893921 1.98773376 76.79296875 1.97521973 C73.67871749 1.95034828 70.56451183 1.93384582 67.45019531 1.91943359 C66.38811167 1.91410992 65.32602802 1.90878624 64.23176003 1.90330124 C58.61097561 1.87656291 52.99021346 1.85718959 47.36938477 1.84277344 C41.55839555 1.8261178 35.74797262 1.78133392 29.93719769 1.73040199 C25.47367182 1.69677739 21.01028118 1.68520126 16.5466404 1.67954636 C14.40438315 1.67282138 12.26213519 1.65756716 10.12000084 1.63365555 C7.12241575 1.60210243 4.12636907 1.60195256 1.12866211 1.609375 C0.24275894 1.59296967 -0.64314423 1.57656433 -1.55589294 1.55966187 C-7.21820063 1.61709216 -9.65869368 2.51494093 -13.31152344 7.19287109 Z " fill="#1EB5BE" transform="translate(519.3115234375,11.80712890625)"/>
<path d="M0 0 C3.63 0 7.26 0 11 0 C11 11.22 11 22.44 11 34 C16.28 34 21.56 34 27 34 C27 37.3 27 40.6 27 44 C18.09 44 9.18 44 0 44 C0 29.48 0 14.96 0 0 Z " fill="#FFFFFF" transform="translate(116,22)"/>
<path d="M0 0 C3.5 0.6875 3.5 0.6875 6.4375 2.4375 C9.57371468 7.37941404 9.31771311 11.99495873 8.5 17.6875 C7.0625 20.9375 7.0625 20.9375 4.5 22.6875 C1.34193076 23.37126545 -1.34255222 23.37692438 -4.5 22.6875 C-7.0625 20.875 -7.0625 20.875 -8.5 17.6875 C-9.32056749 12.4958326 -9.61925306 7.42495458 -6.4375 3 C-3.5 0.6875 -3.5 0.6875 0 0 Z " fill="#E3DDF8" transform="translate(456.5,32.3125)"/>
<path d="M0 0 C3.3 0 6.6 0 10 0 C10 10.56 10 21.12 10 32 C6.7 32 3.4 32 0 32 C0 21.44 0 10.88 0 0 Z " fill="#FFFFFF" transform="translate(261,34)"/>
<path d="M0 0 C11.03030303 -0.48484848 11.03030303 -0.48484848 15.25 1.625 C17.49369241 4.67001113 17.5518663 6.29461199 17 10 C16.01 11.485 16.01 11.485 15 13 C14.34 13 13.68 13 13 13 C13.66 14.11375 14.32 15.2275 15 16.375 C17 19.75 17 19.75 17 22 C15.35 22 13.7 22 12 22 C9 16.25 9 16.25 9 14 C7.68 14 6.36 14 5 14 C5 16.64 5 19.28 5 22 C3.35 22 1.7 22 0 22 C0 14.74 0 7.48 0 0 Z " fill="#375B5E" transform="translate(542,33)"/>
<path d="M0 0 C4.95 0 9.9 0 15 0 C15 1.32 15 2.64 15 4 C11.7 4 8.4 4 5 4 C5 5.65 5 7.3 5 9 C8.3 9 11.6 9 15 9 C15 10.32 15 11.64 15 13 C11.7 13 8.4 13 5 13 C5 14.65 5 16.3 5 18 C8.3 18 11.6 18 15 18 C15 19.32 15 20.64 15 22 C10.05 22 5.1 22 0 22 C0 14.74 0 7.48 0 0 Z " fill="#375B5E" transform="translate(580,33)"/>
<path d="M0 0 C4.95 0 9.9 0 15 0 C15 1.32 15 2.64 15 4 C11.7 4 8.4 4 5 4 C5 5.65 5 7.3 5 9 C7.97 9 10.94 9 14 9 C14 10.32 14 11.64 14 13 C11.03 13 8.06 13 5 13 C5 14.65 5 16.3 5 18 C8.3 18 11.6 18 15 18 C15 19.32 15 20.64 15 22 C10.05 22 5.1 22 0 22 C0 14.74 0 7.48 0 0 Z " fill="#33575A" transform="translate(562,33)"/>
<path d="M0 0 C1.65 0 3.3 0 5 0 C6.65 4.62 8.3 9.24 10 14 C12.07626313 9.37559575 13.70022952 4.8991349 15 0 C16.65 0 18.3 0 20 0 C19.33869808 4.83201287 18.06831066 9.2195902 16.5 13.8125 C16.27441406 14.49248047 16.04882812 15.17246094 15.81640625 15.87304688 C14.13375235 20.86624765 14.13375235 20.86624765 13 22 C11.00041636 22.04080783 8.99954746 22.04254356 7 22 C5.82538445 18.89878289 4.66169544 15.79357759 3.5 12.6875 C3.16613281 11.80642578 2.83226562 10.92535156 2.48828125 10.01757812 C2.17246094 9.17001953 1.85664063 8.32246094 1.53125 7.44921875 C1.23798828 6.66893311 0.94472656 5.88864746 0.64257812 5.0847168 C0 3 0 3 0 0 Z " fill="#E3DCF7" transform="translate(391,33)"/>
<path d="M0 0 C2.4375 1.0625 2.4375 1.0625 4 3 C4.6875 6.25 4.6875 6.25 4 10 C1.9249598 12.65172631 -0.4251744 14.83898566 -3 17 C-0.36 17.33 2.28 17.66 5 18 C5 19.32 5 20.64 5 22 C-0.28 22 -5.56 22 -11 22 C-11 18 -11 18 -9.3203125 16.18359375 C-8.59585937 15.60738281 -7.87140625 15.03117187 -7.125 14.4375 C-4.49739528 12.3231729 -2.89902095 10.84853143 -1 8 C-1 7.01 -1 6.02 -1 5 C-2.65 4.67 -4.3 4.34 -6 4 C-6 4.99 -6 5.98 -6 7 C-7.65 7 -9.3 7 -11 7 C-10.6875 4.625 -10.6875 4.625 -10 2 C-6.28986601 -0.47342266 -4.38939738 -0.38503486 0 0 Z " fill="#E3DCF7" transform="translate(432,33)"/>
<path d="M0 0 C4.62 0 9.24 0 14 0 C14 1.32 14 2.64 14 4 C10.7 4 7.4 4 4 4 C4 5.65 4 7.3 4 9 C6.97 9 9.94 9 13 9 C13 10.32 13 11.64 13 13 C10.03 13 7.06 13 4 13 C4 15.97 4 18.94 4 22 C2.68 22 1.36 22 0 22 C0 14.74 0 7.48 0 0 Z " fill="#2D5154" transform="translate(525,33)"/>
<path d="M0 0 C1.8125 1.125 1.8125 1.125 3 3 C3.39365568 6.14924548 3.52854531 8.11909116 1.875 10.875 C-0.88090884 12.52854531 -2.85075452 12.39365568 -6 12 C-7.9375 10.9375 -7.9375 10.9375 -9 9 C-8.875 5.4375 -8.875 5.4375 -8 2 C-4.76746204 -0.15502531 -3.74849077 -0.46856135 0 0 Z " fill="#FFFFFF" transform="translate(269,20)"/>
<path d="M0 0 C2.5625 0.25 2.5625 0.25 5 1 C6.58873246 4.17746491 6.41026221 7.54012202 6 11 C4.5 13.5 4.5 13.5 3 15 C1.0625 14.625 1.0625 14.625 -1 14 C-2.23887548 11.52224905 -2.16741669 9.76346293 -2.1875 7 C-2.20167969 6.113125 -2.21585937 5.22625 -2.23046875 4.3125 C-2 2 -2 2 0 0 Z " fill="#55299B" transform="translate(455,37)"/>
<path d="M0 0 C1.98 0 3.96 0 6 0 C6.38218767 1.65614657 6.71395102 3.32457024 7 5 C6 6 6 6 2.9375 6.0625 C1.4834375 6.0315625 1.4834375 6.0315625 0 6 C0 4.02 0 2.04 0 0 Z " fill="#D1F6F8" transform="translate(547,37)"/>
<path d="M0 0 C1.98 0.495 1.98 0.495 4 1 C4 2.32 4 3.64 4 5 C2.35 4.67 0.7 4.34 -1 4 C-0.67 2.68 -0.34 1.36 0 0 Z " fill="#D8CEF0" transform="translate(441,50)"/>
</svg>
